<?xml version="1.0" ?>
<svg xmlns="http://www.w3.org/2000/svg" width="512" height="512" viewBox="0 0 512 512">
	<rect width="100%" height="100%" fill="black"/>
	<style>
@keyframes fall {
  0% { transform: translateY(-100%); }
  100% { transform: translateY(100%); }
}
text {
  font-family: monospace;
  font-size: 16px;
  fill: #39FF14;
  animation: fall 3s linear infinite;
  opacity: 1;
}
</style>
	<text x="10" y="128">01</text>
	<text x="10" y="256">01</text>
	<text x="10" y="384">01</text>
	<text x="61" y="128">01</text>
	<text x="61" y="256">01</text>
	<text x="61" y="384">01</text>
	<text x="112" y="128">01</text>
	<text x="112" y="256">01</text>
	<text x="112" y="384">01</text>
	<text x="163" y="128">01</text>
	<text x="163" y="256">01</text>
	<text x="163" y="384">01</text>
	<text x="214" y="128">01</text>
	<text x="214" y="256">01</text>
	<text x="214" y="384">01</text>
	<text x="265" y="128">01</text>
	<text x="265" y="256">01</text>
	<text x="265" y="384">01</text>
	<text x="316" y="128">01</text>
	<text x="316" y="256">01</text>
	<text x="316" y="384">01</text>
	<text x="367" y="128">01</text>
	<text x="367" y="256">01</text>
	<text x="367" y="384">01</text>
	<text x="418" y="128">01</text>
	<text x="418" y="256">01</text>
	<text x="418" y="384">01</text>
	<text x="469" y="128">01</text>
	<text x="469" y="256">01</text>
	<text x="469" y="384">01</text>
</svg>
